<svg width="11" height="9" viewBox="0 0 11 9" fill="none" xmlns="http://www.w3.org/2000/svg">
<path d="M10.8013 1.16569L9.83615 0.199C9.70381 0.06635 9.54286 0 9.35368 0C9.16432 0 9.00337 0.06635 8.87103 0.199L4.21548 4.86907L2.12902 2.77213C1.99653 2.63943 1.83568 2.57316 1.6465 2.57316C1.45719 2.57316 1.29634 2.63943 1.16385 2.77213L0.198706 3.73885C0.0662188 3.87153 0 4.03268 0 4.22227C0 4.41171 0.0662188 4.57302 0.198706 4.70567L2.76769 7.27873L3.73291 8.24542C3.86532 8.37817 4.02622 8.44444 4.21548 8.44444C4.40467 8.44444 4.56557 8.378 4.69805 8.24542L5.66325 7.27873L10.8013 2.13246C10.9337 1.99976 11 1.83863 11 1.64904C11.0001 1.45955 10.9337 1.29839 10.8013 1.16569Z" fill="#C6A652"/>
</svg>
