<svg width="35" height="32" viewBox="0 0 35 32" fill="none" xmlns="http://www.w3.org/2000/svg">
<path d="M25.6951 9.48151C24.6688 9.0589 24.3723 8.80334 24.3723 8.34185C24.3723 7.97254 24.6446 7.54108 25.4123 7.54108C26.0914 7.54108 26.6122 7.81613 26.6168 7.81851C26.6716 7.84854 26.7331 7.86455 26.794 7.86455C26.9426 7.86455 27.074 7.77218 27.1285 7.62919L27.3151 7.13936C27.38 6.96087 27.2815 6.80535 27.1558 6.74956C26.7377 6.56262 25.9206 6.41794 25.9123 6.41645C25.8991 6.41406 25.8534 6.40402 25.8534 6.34903L25.8507 5.63845C25.8507 5.42446 25.6768 5.25024 25.4632 5.25024H25.1286C24.9153 5.25024 24.7414 5.42436 24.7414 5.63855L24.7423 6.38562C24.7423 6.4429 24.6819 6.46776 24.6598 6.47303C23.6284 6.7254 22.9838 7.50151 22.9838 8.48047C22.9838 9.70087 23.9658 10.2523 25.0262 10.6663C25.8739 11.0082 26.2197 11.3548 26.2197 11.8632C26.2197 12.4165 25.7299 12.8029 25.0283 12.8029C24.4292 12.8029 23.6184 12.4128 23.6104 12.4088C23.5585 12.3836 23.5035 12.3709 23.447 12.3709C23.2927 12.3709 23.1583 12.4667 23.1046 12.6152L22.9265 13.1106C22.8632 13.2955 22.9607 13.4457 23.0854 13.5125C23.5834 13.7789 24.5469 13.935 24.5898 13.9419C24.6013 13.9436 24.66 13.9647 24.66 14.0198V14.7636C24.66 14.9776 24.8339 15.1518 25.0476 15.1518H25.3934C25.6071 15.1518 25.781 14.9777 25.781 14.7636V13.9809C25.781 13.9077 25.8336 13.9012 25.8445 13.8985C26.9432 13.645 27.6201 12.8191 27.6201 11.7822C27.6198 10.7171 27.044 10.0289 25.6951 9.48151Z" fill="#C6A652"/>
<path d="M25.2628 0.87207C20.247 0.87207 16.1812 5.04894 16.1812 10.2011C16.1812 15.3533 20.247 19.5303 25.2628 19.5303C30.2785 19.5303 34.3444 15.3533 34.3444 10.2011C34.3444 5.04894 30.2785 0.87207 25.2628 0.87207ZM25.2628 17.3682C21.4094 17.3682 18.2858 14.1593 18.2858 10.2012C18.2858 6.24308 21.4094 3.03424 25.2628 3.03424C29.1161 3.03424 32.2396 6.24308 32.2396 10.2012C32.2396 14.1593 29.1161 17.3682 25.2628 17.3682Z" fill="#C6A652"/>
<path d="M32.4993 24.0514C30.5681 25.1463 27.912 26.1587 25.2631 26.5855C22.9064 26.9651 18.4727 26.0495 18.4727 24.9681C18.4727 24.5583 22.3612 25.9778 24.7134 25.3332C26.5171 24.8389 26.261 23.1057 25.2799 22.8771C24.3046 22.6496 18.5902 20.4992 16.1494 20.425C14.9996 20.3901 12.1609 20.8358 10.7873 21.0656C10.3167 21.1443 10.0217 21.1356 9.99224 21.5982C9.85555 23.748 9.58616 28.1444 9.43931 30.4408C9.43621 30.4893 9.50184 31.1418 10.026 30.6826C10.5998 30.18 11.4045 29.623 12.1488 29.7964C13.3165 30.0686 23.4187 31.9697 24.8122 31.637C26.8056 31.161 32.4486 27.7257 33.5306 26.658C35.2076 25.0026 33.9039 23.255 32.4993 24.0514Z" fill="#C6A652"/>
<path d="M7.20419 20.9817L1.91187 20.7138C1.50328 20.6932 1.08597 21.0095 0.984422 21.4165L0.0221222 30.3912C-0.0793254 30.7983 0.172164 31.1447 0.580955 31.1609L6.44614 31.1603C6.85502 31.1766 7.21493 30.847 7.24629 30.428L7.89041 21.7811C7.92158 21.3622 7.61278 21.0024 7.20419 20.9817ZM4.08854 29.9714C3.28035 29.9714 2.6253 29.2984 2.6253 28.4683C2.6253 27.6381 3.28045 26.9652 4.08854 26.9652C4.89664 26.9652 5.55179 27.6382 5.55179 28.4683C5.55179 29.2985 4.89674 29.9714 4.08854 29.9714Z" fill="#C6A652"/>
</svg>
