<svg width="25" height="25" viewBox="0 0 25 25" fill="none" xmlns="http://www.w3.org/2000/svg">
<g clip-path="url(#clip0_1_430)">
<path d="M18.6797 11.3953C18.5531 11.1156 18.275 10.9375 17.9687 10.9375H14.8437V0.78125C14.8437 0.35 14.4937 0 14.0625 0H10.9375C10.5062 0 10.1562 0.35 10.1562 0.78125V10.9375H7.03122C6.72497 10.9375 6.44685 11.1172 6.32029 11.3953C6.19216 11.675 6.24216 12.0016 6.44372 12.2328L11.9125 18.4828C12.0609 18.6531 12.275 18.75 12.5 18.75C12.725 18.75 12.939 18.6516 13.0875 18.4828L18.5562 12.2328C18.7593 12.0031 18.8062 11.675 18.6797 11.3953Z" fill="white"/>
<path d="M21.0938 17.1875V21.875H3.90625V17.1875H0.78125V23.4375C0.78125 24.3016 1.48125 25 2.34375 25H22.6562C23.5203 25 24.2188 24.3016 24.2188 23.4375V17.1875H21.0938Z" fill="white"/>
</g>
<defs>
<clipPath id="clip0_1_430">
<rect width="25" height="25" fill="white"/>
</clipPath>
</defs>
</svg>
