<svg width="35" height="35" viewBox="0 0 35 35" fill="none" xmlns="http://www.w3.org/2000/svg">
<path d="M29.9296 20.0263C29.9311 20.0106 29.9341 19.9935 29.9356 19.9793C30.2398 18.2815 29.9341 12.1315 29.4725 10.7111C28.9789 9.18554 28.3294 7.4758 26.9209 6.38941C26.5481 5.20684 25.9016 4.09212 24.968 3.15188C21.8468 0.0105236 16.7681 -0.00588065 13.626 3.11385C11.3741 5.35 10.7366 8.58978 11.6992 11.403L10.3645 12.728L11.3816 13.7525L11.3614 13.7712L9.19981 13.8636L9.4511 15.6688L9.18117 15.9365L6.93602 16.0148L7.18954 17.9132L6.96659 18.1354L4.95633 17.981L5.12708 19.9629L4.75276 20.3342L2.76114 20.3574L2.40994 22.6621L1.82833 23.2377L0.280364 22.6248L0 25.0548L0.556999 25.6156L0.977545 26.0383L12.3584 14.7353L12.9258 15.3072L1.54498 26.6117L3.24655 28.3244L14.6274 17.0221L15.2918 17.6902L16.6257 16.3667C18.8716 17.1511 21.3867 16.8969 23.4596 15.6278C23.6639 16.1445 23.8757 16.6657 24.0882 17.1862C24.247 17.5724 24.3917 17.9258 24.5162 18.2383C24.6243 18.5082 24.7264 18.8452 24.8368 19.2039C24.93 19.5073 25.0277 19.8235 25.1351 20.1329L18.5644 22.6151L21.588 23.5613L19.3056 30.8521L30.0549 34.2164L32.338 26.9256L35.0007 27.7578L29.9296 20.0263ZM23.4603 7.69874C23.1032 8.05441 22.6521 8.24977 22.1883 8.30494C22.1935 7.77778 22.2912 7.34904 22.5141 7.06794C23.0033 6.45428 23.523 6.1359 24.0912 6.06879C24.1165 6.6571 23.9115 7.25286 23.4603 7.69874ZM20.4099 4.62823C21.2584 3.78641 22.6289 3.79088 23.47 4.63867C23.6736 4.84372 23.8265 5.08083 23.9301 5.33285C23.1934 5.43799 22.526 5.85479 21.9295 6.60341C21.6082 7.00754 21.465 7.5787 21.4538 8.27065C21.0661 8.18266 20.697 7.99252 20.3965 7.6898C19.5576 6.84127 19.5613 5.47079 20.4099 4.62823ZM25.5489 18.9839C25.4326 18.6036 25.3222 18.2472 25.2081 17.9594C25.0829 17.6455 24.936 17.2906 24.7772 16.9013C24.5736 16.4018 24.3372 15.8261 24.0941 15.211C24.3842 14.9933 24.6646 14.7577 24.9285 14.4944C26.7859 12.649 27.5428 10.1228 27.2139 7.71366C27.9685 8.64421 28.4077 9.84169 28.7634 10.94C29.125 12.0585 29.3987 16.8074 29.2809 19.0376L29.0318 18.6581L25.8308 19.866C25.7279 19.5707 25.6339 19.2657 25.5489 18.9839ZM28.9297 21.2215C28.8767 21.355 28.8156 21.478 28.7276 21.569C28.5382 21.7696 28.2325 21.8098 28.0081 21.8098C27.5055 21.8098 26.9142 21.5981 26.5988 21.3058C26.5675 21.2767 26.5384 21.2387 26.5086 21.2044L28.439 20.4744L28.9297 21.2215ZM31.3582 25.0541L29.0758 32.3456L21.1719 29.8739L23.4544 22.5816L23.1337 22.4817L25.7801 21.481C25.8762 21.619 25.9784 21.7457 26.0925 21.8523C26.5443 22.2729 27.3153 22.5555 28.0081 22.5555C28.5382 22.5555 28.9737 22.3914 29.2667 22.0827C29.3137 22.0335 29.3443 21.9717 29.3838 21.915L31.4634 25.0862L31.3582 25.0541Z" fill="#C6A652"/>
</svg>
