<svg width="35" height="35" viewBox="0 0 35 35" fill="none" xmlns="http://www.w3.org/2000/svg">
<g clip-path="url(#clip0_1_217)">
<path d="M27.7311 16.4111H3.62939C1.96808 16.4111 0.616699 17.7907 0.616699 19.4865V31.9247C0.616699 33.6205 1.96815 35 3.62939 35H27.7311C29.3923 35 30.7438 33.6205 30.7438 31.9247V19.4865C30.7438 17.7907 29.3923 16.4111 27.7311 16.4111ZM3.62939 32.9498C3.07624 32.9498 2.62516 32.4903 2.62516 31.9247V30.02C4.02965 30.3927 5.13011 31.5158 5.49527 32.9498H3.62939ZM2.62516 21.3911V19.4865C2.62516 18.9209 3.07624 18.4614 3.62939 18.4614H5.49527C5.13011 19.8953 4.02965 21.0184 2.62516 21.3911ZM15.6803 30.8996C12.9108 30.8996 10.6591 28.5317 10.6591 25.7056C10.6591 22.8795 12.9108 20.5117 15.6803 20.5117C18.4497 20.5117 20.7015 22.8795 20.7015 25.7056C20.7014 28.5317 18.4497 30.8996 15.6803 30.8996ZM28.7353 31.9247C28.7353 32.4903 28.2842 32.9498 27.7311 32.9498H25.8652C26.2304 31.5158 27.3308 30.3927 28.7353 30.02V31.9247ZM28.7353 21.3911C27.3308 21.0184 26.2304 19.8953 25.8652 18.4614H27.7311C28.2842 18.4614 28.7353 18.9209 28.7353 19.4865V21.3911Z" fill="#C6A652"/>
<path d="M15.6807 22.562C14.0194 22.562 12.668 24.0099 12.668 25.7057C12.668 27.4015 14.0194 28.8494 15.6807 28.8494C17.3419 28.8494 18.6933 27.4016 18.6933 25.7057C18.6933 24.0099 17.3419 22.562 15.6807 22.562Z" fill="#C6A652"/>
<path d="M19.9177 12.5489C19.2175 11.0122 17.4228 10.3465 15.9125 11.0613C15.1848 11.4087 14.6317 12.0244 14.3571 12.7962C14.1747 13.3055 14.1421 13.8407 14.2295 14.3609H20.1475C20.2474 13.7636 20.1848 13.1337 19.9177 12.5489Z" fill="#C6A652"/>
<path d="M33.3861 12.9243L32.1135 10.139L32.1132 10.1372C32.1132 10.1372 32.1124 10.1363 32.1122 10.1358L28.2923 1.77502C27.592 0.239329 25.7935 -0.428406 24.2891 0.287385L21.5582 1.58744L21.5569 1.58779L21.5558 1.58867L5.17991 9.38479C5.17904 9.38513 5.1781 9.38506 5.1781 9.38506C5.17636 9.38581 5.17576 9.38684 5.17489 9.38718L2.44701 10.6859C0.940196 11.4012 0.281179 13.2215 0.987742 14.7723L1.12415 15.0709C1.70241 14.7275 2.34937 14.5052 3.04368 14.4214L2.80796 13.9054C2.57324 13.3952 2.79008 12.7847 3.2944 12.5439L4.98584 11.7386C5.14998 12.6522 4.97097 13.5637 4.56235 14.3609H12.2088C12.1333 13.6027 12.2059 12.8328 12.4679 12.0954C12.9268 10.8091 13.8487 9.78189 15.0648 9.20329C17.5714 8.01199 20.5685 9.12119 21.7374 11.6821C22.132 12.5454 22.2578 13.4689 22.168 14.361H27.7315C28.3123 14.361 28.8614 14.4821 29.3807 14.6681C29.5159 13.6661 29.9918 12.7276 30.7773 12.0649L31.566 13.7914C31.8006 14.3015 31.5838 14.9119 31.0795 15.1527L30.6687 15.3483C31.2322 15.7664 31.6983 16.3019 32.0513 16.9181C33.5847 16.0904 34.0267 14.3305 33.3861 12.9243ZM23.4457 2.95032L25.1364 2.14546C25.6346 1.90723 26.2348 2.12844 26.4721 2.64202L27.2602 4.36714C25.8314 4.63456 24.3693 4.09097 23.4457 2.95032Z" fill="#C6A652"/>
</g>
<defs>
<clipPath id="clip0_1_217">
<rect width="34.2868" height="35" fill="white"/>
</clipPath>
</defs>
</svg>
