<svg width="92" height="92" viewBox="0 0 92 92" fill="none" xmlns="http://www.w3.org/2000/svg">
<path d="M61.1738 44.201L42.0703 30.3142C41.3692 29.806 40.4386 29.7295 39.6701 30.1244C38.8956 30.5163 38.4119 31.3123 38.4119 32.1725V59.9369C38.4119 60.8064 38.8956 61.5993 39.6701 61.9912C39.9977 62.1565 40.3559 62.2392 40.7171 62.2392C41.1886 62.2392 41.6662 62.0891 42.0703 61.7922L61.1738 47.9176C61.7769 47.4737 62.129 46.7879 62.129 46.0593C62.1321 45.3184 61.7708 44.6357 61.1738 44.201Z" fill="white"/>
<path d="M46.0015 0.00646973C20.5914 0.00646973 0 20.5979 0 46.008C0 71.409 20.5914 91.9942 46.0015 91.9942C71.4055 91.9942 92 71.4059 92 46.008C92.0031 20.5979 71.4055 0.00646973 46.0015 0.00646973ZM46.0015 84.3191C24.8407 84.3191 7.68427 67.1719 7.68427 46.008C7.68427 24.8533 24.8407 7.68462 46.0015 7.68462C67.1593 7.68462 84.3127 24.8502 84.3127 46.008C84.3157 67.1719 67.1593 84.3191 46.0015 84.3191Z" fill="white"/>
</svg>
