<svg width="113" height="113" viewBox="0 0 113 113" fill="none" xmlns="http://www.w3.org/2000/svg">
<g clip-path="url(#clip0_1_373)">
<path d="M40.3607 59.8604L48.5501 55.5506L40.3607 51.2405L45.2978 43.413L36.0506 43.775L36.4126 34.5278L28.5851 39.4649L24.275 31.2755L19.9649 39.4649L12.1375 34.5278L12.4995 43.775L3.25227 43.413L8.18938 51.2405L0 55.5506L8.18938 59.8606L3.25227 67.6881L12.4995 67.3261L12.1375 76.5731L19.9649 71.636L24.275 79.8256L28.5851 71.6362L36.4126 76.5731L36.0506 67.3259L45.2978 67.6878L40.3607 59.8604ZM24.275 67.6881C17.5716 67.6881 12.1375 62.2537 12.1375 55.5506C12.1375 48.8474 17.5716 43.413 24.275 43.413C30.9784 43.413 36.4126 48.8474 36.4126 55.5506C36.4126 62.2537 30.9784 67.6881 24.275 67.6881Z" fill="#C6A652"/>
<path d="M101.669 103.6C99.4332 105.172 97.8179 106.308 94.1569 106.308C90.4959 106.308 88.8803 105.172 86.6444 103.6C84.1652 101.857 81.0796 99.6873 75.3246 99.6873C69.5693 99.6873 66.4839 101.857 64.0048 103.6C61.769 105.172 60.1537 106.308 56.4932 106.308C52.8326 106.308 51.2173 105.172 48.9816 103.6C46.5024 101.857 43.417 99.6873 37.6622 99.6873C31.9069 99.6873 28.8217 101.857 26.3426 103.6C24.1069 105.172 22.4915 106.308 18.831 106.308C15.1704 106.308 13.5553 105.172 11.3196 103.6C8.84045 101.857 5.75525 99.687 0 99.687V106.307C3.66035 106.307 5.27589 107.443 7.5116 109.015C9.99075 110.758 13.0762 112.928 18.831 112.928C24.5862 112.928 27.6714 110.758 30.1506 109.015C32.3863 107.443 34.0016 106.307 37.6622 106.307C41.3227 106.307 42.9378 107.443 45.1736 109.015C47.6527 110.758 50.7381 112.928 56.4929 112.928C62.2477 112.928 65.3334 110.759 67.8125 109.015C70.0482 107.443 71.6636 106.307 75.3244 106.307C78.9851 106.307 80.6007 107.443 82.8366 109.015C85.3158 110.759 88.4014 112.928 94.1567 112.928C99.9119 112.928 102.997 110.759 105.476 109.015C107.713 107.444 109.328 106.307 112.989 106.307V99.687C107.234 99.687 104.148 101.856 101.669 103.6Z" fill="#C6A652"/>
<path d="M109.568 24.1798C105.928 16.3729 99.7867 10.2374 92.0806 6.62492L93.6415 2.3369L87.4199 0.072052L85.8584 4.36228C67.87 -0.398706 48.836 9.29608 42.3507 27.1145L41.0143 30.7863L44.8559 31.5009C51.064 32.6559 56.9991 34.8161 62.4966 37.9218L63.2695 38.3584L64.157 38.3498C64.2686 38.3487 64.3803 38.3482 64.4918 38.3482C67.4139 38.3482 70.3013 38.7219 73.0903 39.4422L57.6646 81.8237C57.2744 81.8188 56.8846 81.8118 56.494 81.8118C46.2655 81.8118 36.2202 83.4867 26.6371 86.7899C20.5998 88.8709 14.8212 91.5748 9.36365 94.8577C11.8852 95.9067 13.743 97.2113 15.1262 98.1837C17.062 99.545 17.2643 99.6871 18.8302 99.6871C20.3963 99.6871 20.5985 99.5448 22.5336 98.1841C25.2566 96.2695 29.8124 93.0667 37.6614 93.0667C45.5105 93.0667 50.0662 96.27 52.7881 98.1837C54.7239 99.545 54.9263 99.6871 56.4922 99.6871C58.0583 99.6871 58.2605 99.5448 60.1954 98.1841C62.9186 96.2698 67.4743 93.0667 75.3236 93.0667C83.1738 93.0667 87.7295 96.2702 90.4516 98.1839C92.3872 99.5448 92.5896 99.6871 94.1559 99.6871C95.7222 99.6871 95.9246 99.5448 97.8595 98.1841C99.2431 97.2113 101.102 95.9065 103.624 94.8573C98.1661 91.5743 92.3876 88.8705 86.3501 86.7895C79.3077 84.362 72.0153 82.8177 64.5845 82.1676L79.3115 41.706C82.0104 42.9944 84.5501 44.6382 86.8571 46.6124L87.5315 47.1896L88.4042 47.3518C94.6123 48.5067 100.547 50.6669 106.045 53.7727L109.447 55.6945L110.784 52.0225C114.11 42.8828 113.679 32.9946 109.568 24.1798Z" fill="#C6A652"/>
</g>
<defs>
<clipPath id="clip0_1_373">
<rect width="113" height="113" fill="white"/>
</clipPath>
</defs>
</svg>
